<svg xmlns="http://www.w3.org/2000/svg" enable-background="new 0 0 50 50" viewBox="0 0 50 50"><path d="M5.7373,45.45483h38.5249c2.5927,0,4.73779-2.10998,4.73779-4.73242V22.84009v-7.96436
		c0-2.53183-2.08356-4.73389-4.73779-4.73389H32.41797V7.38892c0-1.56787-1.27588-2.84375-2.84375-2.84375h-9.14893
		c-1.56787,0-2.84375,1.27588-2.84375,2.84375v2.75293H5.7373C3.12334,10.14185,1,12.27183,1,14.87573v7.96436v17.88232
		C1,43.25676,3.11975,45.45483,5.7373,45.45483z M44.26074,43.4519H5.73926c-1.53761,0-2.73779-1.29329-2.73779-2.73291V26.68677
		c0.77484,0.55096,1.716,0.88281,2.73779,0.88281h4.14111v1.61768c0,0.55225,0.44775,1,1,1h4.84229c0.55225,0,1-0.44775,1-1
		v-1.61768h16.54541v1.61768c0,0.55225,0.44775,1,1,1h4.85156c0.55225,0,1-0.44775,1-1v-1.61768h4.14111
		c1.02161,0,1.96252-0.33173,2.7373-0.88245v14.03186C46.99805,42.2097,45.76594,43.4519,44.26074,43.4519z M3.00146,14.87769
		c0-1.4556,1.19903-2.73145,2.73779-2.73145h6.56543v10.77832h-1.42432c-0.55225,0-1,0.44775-1,1v1.64502H5.73926
		c-1.50531,0-2.72974-1.21698-2.73779-2.71509V14.87769z M46.99805,14.87769v7.98163
		c-0.01068,1.49579-1.23364,2.71027-2.7373,2.71027h-4.14111v-1.64502c0-0.55225-0.44775-1-1-1h-1.4248V12.14624h6.56592
		C45.76377,12.14624,46.99805,13.36088,46.99805,14.87769z M35.26807,24.92456h2.85156c0,0.10269,0,3.37977,0,3.2627h-2.85156
		C35.26807,27.99545,35.26807,24.75924,35.26807,24.92456z M35.69482,22.92456h-1.42676c-0.55225,0-1,0.44775-1,1v1.64502H16.72266
		v-1.64502c0-0.55225-0.44775-1-1-1h-1.41797V12.14624h21.39014V22.92456z M11.88037,24.92456h2.84229c0,0.10269,0,3.37977,0,3.2627
		h-2.84229C11.88037,27.99545,11.88037,24.75924,11.88037,24.92456z M19.58154,7.38892c0-0.46533,0.37842-0.84375,0.84375-0.84375
		h9.14893c0.46533,0,0.84375,0.37842,0.84375,0.84375v2.75293H19.58154V7.38892z"/></svg>